<svg width="531" height="532" viewBox="0 0 531 532" fill="none" xmlns="http://www.w3.org/2000/svg">
<path d="M230.84 157.943L170.092 208.059C211.097 283.993 410.044 531.539 472.31 517.87C522.123 506.936 332.085 273.363 230.84 157.943Z" fill="#FFB1B2"/>
<path d="M76.4426 35.1877C36.9847 67.5772 23.6232 116.511 53.5245 152.886C65.0137 166.887 145.296 209.307 157.023 215.449L195.202 261.925C221.547 302.388 297.528 403.269 428.07 514.554C447.765 531.337 461.618 532.988 475.373 521.71C489.104 510.43 490.168 496.516 477.526 473.942C393.699 324.312 309.47 230.201 274.891 196.504L237.643 151.186L238.146 150.788C238.146 150.788 208.803 50.6839 196.401 35.582C166.508 -0.800581 115.908 2.79991 76.4426 35.1877ZM463.57 481.77C474.666 501.58 469.865 505.53 465.208 509.347C460.549 513.171 455.739 517.128 438.449 502.381C314.135 396.398 243.316 303.256 217.626 266.512L275.019 219.391C306.098 251.724 383.729 339.259 463.57 481.77ZM262.524 206.659L207.561 251.778L179.361 217.446L234.316 172.327L262.524 206.659Z" fill="#F57E8A"/>
</svg>
